<svg width="158" height="118" viewBox="0 0 158 118" fill="none" xmlns="http://www.w3.org/2000/svg">
<path d="M25.24 85.22C25.24 85.4333 24.7867 85.5533 23.88 85.58C22.76 85.6067 22.08 85.7933 21.84 86.14C21.76 86.2467 21.7067 86.4733 21.68 86.82V103.74C21.68 110.033 18.6667 113.18 12.64 113.18C9.54667 113.18 7.14667 112.233 5.44 110.34C4.16 108.927 3.52 106.42 3.52 102.82V87.46C3.52 86.6067 3.38667 86.0867 3.12 85.9C2.85333 85.7133 2.01333 85.5667 0.6 85.46C0.306667 85.4333 0.16 85.3267 0.16 85.14C0.16 84.9 0.4 84.78 0.88 84.78C0.88 84.78 0.986667 84.78 1.2 84.78C1.44 84.8067 1.64 84.82 1.8 84.82L4.28 84.86C6.62667 84.8867 8.36 84.8867 9.48 84.86C10.9733 84.8333 11.56 84.82 11.24 84.82H12.08C12.5333 84.82 12.76 84.9533 12.76 85.22C12.76 85.46 12.3467 85.58 11.52 85.58C10.3467 85.58 9.72 85.7933 9.64 86.22C9.58667 86.5133 9.56 86.7933 9.56 87.06V102.02C9.56 104.18 9.6 105.553 9.68 106.14C9.86667 107.873 10.36 109.127 11.16 109.9C12.1467 110.86 13.44 111.34 15.04 111.34C16.8533 111.34 18.1867 110.753 19.04 109.58C20.08 108.167 20.6 105.633 20.6 101.98V88.78C20.6 88.54 20.6133 88.2333 20.64 87.86C20.64 87.4867 20.64 87.26 20.64 87.18C20.64 86.4867 20.44 86.0333 20.04 85.82C19.7733 85.66 19.2533 85.58 18.48 85.58C17.52 85.5533 17.04 85.3933 17.04 85.1C17.04 84.8867 17.2267 84.78 17.6 84.78C18 84.78 18.5867 84.8067 19.36 84.86C20.1333 84.8867 20.72 84.9 21.12 84.9C21.1467 84.9 21.3733 84.8867 21.8 84.86C22.2533 84.86 22.6667 84.86 23.04 84.86H24C24.8267 84.86 25.24 84.98 25.24 85.22ZM52.1209 103.86C52.1209 104.127 51.6143 104.247 50.6009 104.22C49.4009 104.193 48.7609 104.46 48.6809 105.02C48.6276 105.34 48.6009 106.393 48.6009 108.18C48.6009 108.793 48.6143 109.34 48.6409 109.82C45.4676 111.98 42.4409 113.06 39.5609 113.06C35.7743 113.06 32.6009 111.727 30.0409 109.06C27.5076 106.393 26.2409 103.073 26.2409 99.1C26.2409 94.8867 27.5476 91.38 30.1609 88.58C32.7743 85.78 36.0543 84.38 40.0009 84.38C41.6276 84.38 43.3076 84.78 45.0409 85.58C45.6809 85.8733 46.1209 86.02 46.3609 86.02C46.7876 86.02 47.1476 85.7 47.4409 85.06C47.5743 84.74 47.7209 84.58 47.8809 84.58C48.0676 84.58 48.1609 84.7133 48.1609 84.98C48.1609 85.0333 48.1209 85.5667 48.0409 86.58C48.0143 86.9 48.0009 87.66 48.0009 88.86C48.0009 89.7667 48.0276 90.6867 48.0809 91.62C48.1343 92.5533 48.1609 93.02 48.1609 93.02C48.1609 93.5267 48.0276 93.78 47.7609 93.78C47.3876 93.78 47.1343 93.2467 47.0009 92.18C46.6809 89.8333 45.9076 87.98 44.6809 86.62C43.7743 85.6333 42.5076 85.14 40.8809 85.14C35.8409 85.14 33.3209 89.62 33.3209 98.58C33.3209 104.153 34.1476 108.033 35.8009 110.22C36.8409 111.607 38.2276 112.3 39.9609 112.3C42.1476 112.3 43.2409 110.913 43.2409 108.14C43.2409 106.06 43.1476 104.9 42.9609 104.66C42.8009 104.393 42.3609 104.26 41.6409 104.26H40.6409C40.0809 104.26 39.8009 104.14 39.8009 103.9C39.8009 103.66 40.0276 103.54 40.4809 103.54C41.4143 103.54 42.5876 103.553 44.0009 103.58L46.5609 103.62C47.0676 103.62 47.8676 103.607 48.9609 103.58C50.0809 103.527 50.8009 103.5 51.1209 103.5H51.6409C51.9609 103.5 52.1209 103.62 52.1209 103.86ZM74.3634 105.5C74.3634 105.553 74.3501 106.793 74.3234 109.22C74.2968 110.5 74.2701 111.42 74.2434 111.98C74.2434 112.54 74.2434 112.807 74.2434 112.78C67.2034 112.46 61.0434 112.367 55.7634 112.5L52.4034 112.58C51.9234 112.58 51.6834 112.473 51.6834 112.26C51.6834 112.1 51.7368 112.007 51.8434 111.98C51.9768 111.953 52.3901 111.913 53.0834 111.86C54.3368 111.78 55.0168 111.42 55.1234 110.78C55.1768 110.433 55.2034 110.047 55.2034 109.62V89.34C55.2034 87.74 55.1901 86.86 55.1634 86.7C55.1368 86.2733 55.0034 85.98 54.7634 85.82C54.5234 85.66 54.0301 85.58 53.2834 85.58C52.4568 85.58 52.0434 85.46 52.0434 85.22C52.0434 84.9533 52.4034 84.82 53.1234 84.82C53.8701 84.82 54.8968 84.8067 56.2034 84.78C61.1101 84.6733 65.1234 84.6467 68.2434 84.7L70.9634 84.74C71.5501 84.74 72.2701 84.6867 73.1234 84.58L73.4834 88.94C73.6168 90.3267 73.6834 91.18 73.6834 91.5C73.6834 91.7667 73.5501 91.9 73.2834 91.9C73.0168 91.9 72.8434 91.5533 72.7634 90.86C72.5234 89.02 71.7768 87.6867 70.5234 86.86C69.2968 86.0067 67.4701 85.58 65.0434 85.58C64.2968 85.58 63.0168 85.62 61.2034 85.7V97.5C64.1368 97.5267 65.9768 97.3267 66.7234 96.9C67.4968 96.4467 68.0168 95.3 68.2834 93.46C68.4168 92.4733 68.6168 91.98 68.8834 91.98C69.1234 91.98 69.2434 92.22 69.2434 92.7C69.2434 93.18 69.2034 94.1667 69.1234 95.66C69.0968 96.1667 69.0834 96.8467 69.0834 97.7C69.0834 99.9933 69.1101 101.727 69.1634 102.9C69.1901 103.06 69.2034 103.26 69.2034 103.5C69.2034 103.82 69.0834 103.98 68.8434 103.98C68.6568 103.98 68.5368 103.927 68.4834 103.82C68.4301 103.687 68.3501 103.247 68.2434 102.5C67.9768 100.607 67.6034 99.4333 67.1234 98.98C66.6701 98.5 65.6034 98.26 63.9234 98.26H61.2034V111.74L63.7634 111.7C66.6968 111.647 68.4834 111.58 69.1234 111.5C69.9234 111.393 70.6968 111.1 71.4434 110.62C72.1101 110.087 72.5634 109.513 72.8034 108.9C73.0701 108.287 73.3501 107.153 73.6434 105.5C73.7234 105.1 73.8568 104.9 74.0434 104.9C74.2568 104.9 74.3634 105.1 74.3634 105.5ZM102.847 109.42C102.847 109.713 102.754 109.86 102.567 109.86C102.354 109.86 102.221 109.767 102.167 109.58C102.114 109.367 102.061 108.807 102.007 107.9C101.981 107.233 101.887 106.807 101.727 106.62C101.567 106.407 101.221 106.26 100.687 106.18L98.3272 106.14V110.14C98.3272 110.967 98.4605 111.46 98.7272 111.62C98.9939 111.753 99.8872 111.833 101.407 111.86C102.047 111.86 102.367 111.98 102.367 112.22C102.367 112.407 101.701 112.5 100.367 112.5C95.2739 112.5 91.9539 112.527 90.4072 112.58C89.6339 112.607 89.1005 112.62 88.8072 112.62C88.3272 112.62 88.0872 112.513 88.0872 112.3C88.0872 112.033 88.4872 111.9 89.2872 111.9C90.9672 111.9 91.9005 111.78 92.0872 111.54C92.3005 111.3 92.4072 110.86 92.4072 110.22V106.26H88.4472C85.1672 106.26 83.1939 106.233 82.5272 106.18C81.9672 106.153 81.6872 106.033 81.6872 105.82C81.6872 105.607 81.8739 105.26 82.2472 104.78C82.7805 104.113 84.1005 102.433 86.2072 99.74C88.3139 97.02 91.1005 93.5933 94.5672 89.46C94.5939 89.4067 95.3272 88.5133 96.7672 86.78C97.3272 86.0867 97.7139 85.74 97.9272 85.74C98.1672 85.74 98.2872 86.06 98.2872 86.7L98.3272 105.14C99.9539 105.113 100.981 105.033 101.407 104.9C101.674 104.767 101.821 104.607 101.847 104.42C101.901 104.207 101.927 103.633 101.927 102.7C101.927 101.74 102.061 101.26 102.327 101.26C102.514 101.26 102.621 101.447 102.647 101.82C102.674 102.167 102.701 103.38 102.727 105.46C102.727 107.327 102.741 108.393 102.767 108.66C102.821 108.9 102.847 109.153 102.847 109.42ZM92.8072 93.3C92.1139 94.02 90.9805 95.42 89.4072 97.5C88.7672 98.3267 87.8605 99.4867 86.6872 100.98C85.2472 102.793 84.2072 104.14 83.5672 105.02C85.2739 105.127 87.3005 105.18 89.6472 105.18H92.4472C92.5272 100.113 92.6472 96.1533 92.8072 93.3ZM125.308 109.42C125.308 109.713 125.215 109.86 125.028 109.86C124.815 109.86 124.681 109.767 124.628 109.58C124.575 109.367 124.521 108.807 124.468 107.9C124.441 107.233 124.348 106.807 124.188 106.62C124.028 106.407 123.681 106.26 123.148 106.18L120.788 106.14V110.14C120.788 110.967 120.921 111.46 121.188 111.62C121.455 111.753 122.348 111.833 123.868 111.86C124.508 111.86 124.828 111.98 124.828 112.22C124.828 112.407 124.161 112.5 122.828 112.5C117.735 112.5 114.415 112.527 112.868 112.58C112.095 112.607 111.561 112.62 111.268 112.62C110.788 112.62 110.548 112.513 110.548 112.3C110.548 112.033 110.948 111.9 111.748 111.9C113.428 111.9 114.361 111.78 114.548 111.54C114.761 111.3 114.868 110.86 114.868 110.22V106.26H110.908C107.628 106.26 105.655 106.233 104.988 106.18C104.428 106.153 104.148 106.033 104.148 105.82C104.148 105.607 104.335 105.26 104.708 104.78C105.241 104.113 106.561 102.433 108.668 99.74C110.775 97.02 113.561 93.5933 117.028 89.46C117.055 89.4067 117.788 88.5133 119.228 86.78C119.788 86.0867 120.175 85.74 120.388 85.74C120.628 85.74 120.748 86.06 120.748 86.7L120.788 105.14C122.415 105.113 123.441 105.033 123.868 104.9C124.135 104.767 124.281 104.607 124.308 104.42C124.361 104.207 124.388 103.633 124.388 102.7C124.388 101.74 124.521 101.26 124.788 101.26C124.975 101.26 125.081 101.447 125.108 101.82C125.135 102.167 125.161 103.38 125.188 105.46C125.188 107.327 125.201 108.393 125.228 108.66C125.281 108.9 125.308 109.153 125.308 109.42ZM115.268 93.3C114.575 94.02 113.441 95.42 111.868 97.5C111.228 98.3267 110.321 99.4867 109.148 100.98C107.708 102.793 106.668 104.14 106.028 105.02C107.735 105.127 109.761 105.18 112.108 105.18H114.908C114.988 100.113 115.108 96.1533 115.268 93.3Z" fill="white"/>
<path d="M83 98C82.3954 94.9028 76.7328 76.4777 75.9771 71.9022L72.9022 62.7848L69.3152 53.6139L61.8702 39.8743L57.5 31.5L53.5 37L43 26" stroke="white"/>
<path d="M77 94.5C77.8427 90.6162 80.1603 78.1704 81.2137 72.433L85.5 61L90.5 49.5L100.878 32.271L113.519 30.0642L123 23.8855V15.5" stroke="white"/>
<path d="M54.7011 31.4567L48.4114 35.4551L44.9429 33.3421L40.9646 29.8095L38.7808 29.4723M54.7011 31.4567L53.6172 25.8467M54.7011 31.4567L57.077 26.6963L56.2759 22.5498L55.8046 20.1107L52.7254 15.1392M53.6172 25.8467L49.3054 26.6798L44.4752 24.8299L40.1634 25.663L38.7808 29.4723M53.6172 25.8467L52.0252 24.6362M38.7808 29.4723L37.6497 23.6184L38.9852 19.5651L40.8007 19.2144M40.8007 19.2144L40.0938 15.5557L42.3545 13.8538L46.6663 13.0207L52.1127 11.9684M40.8007 19.2144L44.8297 16.9178M52.1127 11.9684L52.7254 15.1392M52.1127 11.9684L56.6304 14.6377L60.3172 15.4435L61.4954 21.5413L59.6589 25.4384L57.8782 30.8428L54.3344 36.5879M52.7254 15.1392L52.0252 24.6362M42.6336 21.3904L46.0551 23.2595L48.3157 21.5576L49.1974 17.592L46.2472 18.162L43.7683 21.1712L46.7185 20.6012L52.0252 24.6362M70.0501 56.07L61.8369 51.3315M61.8369 51.3315L58.7577 46.36L54.5227 45.1541L50.4379 45.9434L51.9496 47.6754L55.9366 52.4715L61.8369 51.3315ZM69.8322 54.9424L68.4477 47.777M68.4477 47.777L68.4477 43L72.0002 40L73.5002 45.1541L71.5002 47.6754L68.4477 47.777Z" stroke="white"/>
<path d="M100.624 26.133L110.774 29.7021L115.173 26.133L119.91 20.617L122.955 19.6436M100.624 26.133V18.6702M100.624 26.133L95.8872 20.617V15.1011V11.8564L98.9323 4.71808M100.624 18.6702H107.053L113.481 15.1011H119.91L122.955 19.6436M100.624 18.6702L102.576 16.7234M122.955 19.6436V11.8564L119.91 6.98936H117.203M117.203 6.98936V2.12234L113.481 0.5H107.053H98.9323M117.203 6.98936L110.774 5.04255M98.9323 0.5V4.71808M98.9323 0.5L93.1805 5.04255L88.1053 6.98936V15.1011L91.8271 19.6436L95.8872 26.133L102.576 32.6223M98.9323 4.71808L102.576 16.7234M115.173 10.234L110.774 13.4787L107.053 11.8564L104.684 6.98936H109.083L113.481 10.234H109.083L102.576 16.7234M85.3985 61.5L95.8872 53.3883M95.8872 53.3883L98.9323 46.25L104.684 43.6543H110.774L109.083 46.25L104.684 53.3883H95.8872ZM85.3985 60V50.4681M85.3985 50.4681L81 46.25V40.0851L85.3985 36.1915L88.1053 40.0851V46.25L85.3985 50.4681Z" stroke="white"/>
</svg>
