<svg width="654" height="729" viewBox="0 0 654 729" fill="none" xmlns="http://www.w3.org/2000/svg">
<path d="M485.264 592.77C472.701 581.516 388.401 521.584 370.476 504.493L327.499 475.763L281.985 448.541L204.215 414.792L157.589 393.653L156.429 430.865L73.166 419.259" stroke="#A28B82" stroke-opacity="0.7" stroke-width="2"/>
<path d="M440.982 590.629C431.693 569.801 400.153 504.355 385.545 474.236L366.552 406.791L350.633 336.613L340.139 221.67L391.126 168.536L414.006 107.759L385.532 68.9669" stroke="#A28B82" stroke-opacity="0.7" stroke-width="2"/>
<path d="M142.116 370.627L126.597 410.481L103.376 412.484L72.9761 409.65L61.7288 415.506M142.116 370.627L118.053 348.355M142.116 370.627L136.943 340.537L119.157 324.075L108.695 314.392L77.5688 301.849M118.053 348.355L100.935 366.85L72.3079 374.693L55.1899 393.188L61.7288 415.506M118.053 348.355L106.577 348.161M61.7288 415.506L36.6189 392.266L29.0337 368.98L36.2413 361.192M36.2413 361.192L20.5476 346.667L25.2268 331.118L42.3448 312.622L63.9676 289.26M36.2413 361.192L47.0818 336.887M63.9676 289.26L77.5688 301.849M63.9676 289.26L93.9312 286.269L113.723 277.477L139.879 301.686L144.616 325.951L154.73 356.999L157.844 395.61M77.5688 301.849L106.577 348.161M52.1095 365.035L74.2843 362.064L78.9635 346.515L69.5764 325.175L57.8641 337.83L56.6142 360.168L68.3265 347.513L106.577 348.161M296.7 432.372L242.614 438.34M242.614 438.34L211.488 425.797L187.802 434.599L171.585 452.12L184.46 455L219.19 463.649L242.614 438.34ZM291.863 427.896L261.128 399.448M261.128 399.448L244.907 377.349L251.154 351.408L275.595 370.159L274.904 388.614L261.128 399.448Z" stroke="#A28B82" stroke-opacity="0.7" stroke-width="2"/>
<path d="M317.754 194.408L376.831 176.453L385.059 145.006L388.243 103.404L399.024 88.5609M317.754 194.408L292.414 159.885M317.754 194.408L277.111 184.975L258.381 159.458L247.363 144.447L237.212 101.084M292.414 159.885L322.153 138.056L339.773 99.7154L369.513 77.8865L399.024 88.5609M292.414 159.885L294.833 144.25M399.024 88.5609L372.582 52.5361L341.968 40.3606L329.447 49.5517M329.447 49.5517L312.92 27.0362L290.194 32.1689L260.454 53.9977L222.889 81.5711M329.447 49.5517L293.096 62.3744M222.889 81.5711L237.212 101.084M222.889 81.5711L211.704 122.117L194.836 148.356L222.381 185.882L255.023 194.259L295.841 210.493L348.82 217.801M237.212 101.084L294.833 144.25M331.073 71.4554L321.742 101.401L299.016 106.534L271.533 92.0606L291.881 77.1251L323.247 77.1999L302.899 92.1354L294.833 144.25M367.411 409.721L388.389 336.58M388.389 336.58L378.237 293.217L396.032 261.677L424.207 240.997L425.194 258.75L429.085 306.708L388.389 336.58ZM362.318 402.782L329.951 358.686M329.951 358.686L295.28 354.108L274.347 325.588L281.473 292.64L307.216 301.462L328.15 329.981L329.951 358.686Z" stroke="#A28B82" stroke-opacity="0.7" stroke-width="2"/>
</svg>
